<?xml version="1.0" encoding="UTF-8" standalone="no"?>
<svg
   xmlns:dc="http://purl.org/dc/elements/1.1/"
   xmlns:cc="http://creativecommons.org/ns#"
   xmlns:rdf="http://www.w3.org/1999/02/22-rdf-syntax-ns#"
   xmlns:svg="http://www.w3.org/2000/svg"
   xmlns="http://www.w3.org/2000/svg"
   id="svg2"
   height="185"
   width="180"
   version="1.0">
  <metadata
     id="metadata10">
    <rdf:RDF>
      <cc:Work
         rdf:about="">
        <dc:format>image/svg+xml</dc:format>
        <dc:type
           rdf:resource="http://purl.org/dc/dcmitype/StillImage" />
        <dc:title></dc:title>
      </cc:Work>
    </rdf:RDF>
  </metadata>
  <defs
     id="defs4" />
  <path
     id="path1367"
     style="fill:#000000;fill-opacity:0.19607843;fill-rule:evenodd"
     d="M 164.07127,82.212594 C 170.78505,130.12831 140.37851,174.02521 96.156376,180.25907 C 51.934221,186.49294 10.642501,152.70312 3.9287292,104.78742 C -2.7850408,56.871696 27.621491,12.974796 71.843631,6.740932 C 116.06577,0.50706203 157.3575,34.296886 164.07127,82.212594 z " />
  <path
     id="path1306"
     style="fill:#712119;fill-opacity:1;fill-rule:evenodd"
     d="M 176.07132,80.212628 C 182.78511,128.12833 152.37858,172.02521 108.15643,178.25906 C 63.934276,184.49292 22.642531,150.7031 15.928736,102.7874 C 9.2149416,54.871706 39.621474,10.97482 83.843627,4.7409676 C 128.06578,-1.4928848 169.35753,32.296929 176.07132,80.212628 z " />
  <path
     id="path1308"
     style="fill:#e8c1bd;fill-opacity:1;fill-rule:evenodd"
     d="M 160.05717,82.470148 C 165.42821,120.8027 141.10299,155.9202 105.72528,160.90729 C 70.347559,165.89438 37.31418,138.86254 31.943147,100.52999 C 26.572114,62.197436 50.897328,27.079933 86.275044,22.092845 C 121.65276,17.105759 154.68614,44.137598 160.05717,82.470148 L 160.05717,82.470148 z " />
  <path
     id="X"
     style="fill:#712119;fill-opacity:1"
     d="m 66.039,137.00022 c 4,-14 15,-26.5 16.4,-41.000005 -8.4,-14 -22.4,-25 -29.4,-41.000005 1,-6 14,-2.4 17.7,-1.6 10.8,3.6 16.3,15.100005 22.899999,23.500005 7.400001,-9.9 10.400001,-32.900005 21.400001,-37.900005 5,1 21,3 17,10 -8.5,14.000005 -16.3,28.500005 -21,44.000005 8,13.000005 20.5,23.000005 28.5,37.000005 0.5,7 -13.5,5 -18.5,4 -8,-6 -13.2,-15 -21,-21 -7.1,6 -7,28 -16,29.6 -3,0.4 -17,-5.1 -18.1,-5.6" />
</svg>
